<svg width="50" height="50" viewBox="0 0 50 50" fill="none" xmlns="http://www.w3.org/2000/svg">
<path d="M18.7487 20.8333C21.0499 20.8333 22.9154 18.9679 22.9154 16.6667C22.9154 14.3655 21.0499 12.5 18.7487 12.5C16.4475 12.5 14.582 14.3655 14.582 16.6667C14.582 18.9679 16.4475 20.8333 18.7487 20.8333Z" stroke="#667085" stroke-width="1.5" stroke-linecap="round" stroke-linejoin="round"/>
<path d="M27.0846 4.16602H18.7513C8.33464 4.16602 4.16797 8.33268 4.16797 18.7493V31.2493C4.16797 41.666 8.33464 45.8327 18.7513 45.8327H31.2513C41.668 45.8327 45.8346 41.666 45.8346 31.2493V20.8327" stroke="#667085" stroke-width="1.5" stroke-linecap="round" stroke-linejoin="round"/>
<path d="M37.5 16.666V4.16602L41.6667 8.33268" stroke="#667085" stroke-width="1.5" stroke-linecap="round" stroke-linejoin="round"/>
<path d="M37.4987 4.16602L33.332 8.33268" stroke="#667085" stroke-width="1.5" stroke-linecap="round" stroke-linejoin="round"/>
<path d="M5.5625 39.4785L15.8333 32.5827C17.4792 31.4785 19.8542 31.6035 21.3333 32.8743L22.0208 33.4785C23.6458 34.8743 26.2708 34.8743 27.8958 33.4785L36.5625 26.041C38.1875 24.6452 40.8125 24.6452 42.4375 26.041L45.8333 28.9577" stroke="#667085" stroke-width="1.5" stroke-linecap="round" stroke-linejoin="round"/>
</svg>
