<svg width="106" height="106" viewBox="0 0 106 106" fill="none" xmlns="http://www.w3.org/2000/svg">
<path d="M53 0.5C24.0725 0.5 0.5 24.0725 0.5 53C0.5 81.9275 24.0725 105.5 53 105.5C81.9275 105.5 105.5 81.9275 105.5 53C105.5 24.0725 81.9275 0.5 53 0.5ZM49.0625 32C49.0625 29.8475 50.8475 28.0625 53 28.0625C55.1525 28.0625 56.9375 29.8475 56.9375 32V58.25C56.9375 60.4025 55.1525 62.1875 53 62.1875C50.8475 62.1875 49.0625 60.4025 49.0625 58.25V32ZM57.83 75.995C57.5675 76.6775 57.2 77.2025 56.7275 77.7275C56.2025 78.2 55.625 78.5675 54.995 78.83C54.365 79.0925 53.6825 79.25 53 79.25C52.3175 79.25 51.635 79.0925 51.005 78.83C50.375 78.5675 49.7975 78.2 49.2725 77.7275C48.8 77.2025 48.4325 76.6775 48.17 75.995C47.9075 75.365 47.75 74.6825 47.75 74C47.75 73.3175 47.9075 72.635 48.17 72.005C48.4325 71.375 48.8 70.7975 49.2725 70.2725C49.7975 69.8 50.375 69.4325 51.005 69.17C52.265 68.645 53.735 68.645 54.995 69.17C55.625 69.4325 56.2025 69.8 56.7275 70.2725C57.2 70.7975 57.5675 71.375 57.83 72.005C58.0925 72.635 58.25 73.3175 58.25 74C58.25 74.6825 58.0925 75.365 57.83 75.995Z" fill="#FD8C00"/>
</svg>
